<?xml version="1.0" encoding="utf-8"?>
<svg version="1.1" xmlns="http://www.w3.org/2000/svg" xmlns:xlink="http://www.w3.org/1999/xlink" viewBox="0 0 100 100" xml:space="preserve">
<style type="text/css">
	.st0{fill:#FFDE76;}
	.st1{fill:#FFB641;}
	.st2{fill:#38484A;}
</style>
<g transform="translate(-340, -420) scale(0.95)">
	<path class="st0" d="M379.9,511.8h12.3c34.8,0,34.5-27.8,32.7-40.3c-0.5-3.4-3.4-6-6.9-6l0,0c-1.4,0-2.7,0.4-3.9,1.2
		c-10.5,7-15.5,5.4-17.8,2.8c-1.5-1.7-1.6-4.2-0.3-6c3.1-4.2,5-9.4,5-15.1c0-14-11.2-25.3-25.1-25.5c-14.1-0.2-25.7,11.3-25.8,25.4
		c0,4.4,1.1,8.6,3.1,12.2c0.6,1.2,0.6,2.6-0.2,3.7C338.6,484,347.3,511.8,379.9,511.8z"/>
	<g>
		<path class="st1" d="M396,463.5c3.1-4.2,5-9.4,5-15.1c0-14-11.2-25.3-25.1-25.5c-1,0-2,0-3,0.1c12.8,1.3,22.8,12.2,22.8,25.3
			c0,5.6-1.8,10.9-5,15.1c-1.3,1.8-1.3,4.4,0.3,6c1.4,1.6,3.9,2.9,8.2,1.8c-1.2-0.4-2.1-1.1-2.8-1.8
			C394.8,467.9,394.7,465.4,396,463.5z"/>
		<path class="st1" d="M386.9,511.8h5.4c34.8,0,34.5-27.8,32.7-40.3c-0.5-3.4-3.4-6-6.9-6l0,0c-0.9,0-1.8,0.2-2.7,0.5
			c2.2,0.9,3.8,2.9,4.2,5.4C421.4,484,421.6,511.8,386.9,511.8z"/>
		<path class="st1" d="M408.1,481.5c-4.7-0.5-9.2-1.7-13.5-3.7c-6-2.9-10.2-9-17.3-9.3c-9.7-0.4-14.7,9.9-13.1,18.4
			c2,10.3,12.5,16.5,22.4,16.5c16.3,0,24.8-9.7,28.2-15c1.2-1.8,0.9-4.2-0.6-5.7C412.4,481,410.3,481.7,408.1,481.5z"/>
	</g>
	<path class="st2" d="M360.4,442.2c-0.7-0.2-1.2-0.9-1-1.6l0.6-2.7c0.2-0.7,0.9-1.2,1.6-1s1.2,0.9,1,1.6l-0.6,2.7
		c-0.1,0.6-0.7,1-1.3,1C360.6,442.2,360.5,442.2,360.4,442.2z"/>
	<path class="st1" d="M347.2,433.4c-1.2-0.8-2.9-0.3-3.3,1.2c-1.1,4.4,3.3,8.3,3.3,8.3c-1.3-0.2-2.4,0-3.2,0.2
		c-1.3,0.4-2.2,1.6-2.2,2.9l0,0c0,1.4,0.9,2.6,2.3,3c1,0.3,2.1,0.8,3.2,1.5c7.3,5.3,13.4-0.3,9.7-3.9c-3.7-3.6-3.1-11.6-3.1-11.6
		C351.2,435.6,348.8,434.4,347.2,433.4z"/>
</g>
</svg>
